<svg xmlns="http://www.w3.org/2000/svg" xmlns:xlink="http://www.w3.org/1999/xlink" width="188" zoomAndPan="magnify" viewBox="0 0 141.75 240.749997" height="321" preserveAspectRatio="xMidYMid meet" version="1.0"><defs><clipPath id="0bf6509f98"><path d="M 0 0.0859375 L 141.5 0.0859375 L 141.5 240.414062 L 0 240.414062 Z M 0 0.0859375 " clip-rule="nonzero"/></clipPath><clipPath id="bd103fe005"><path d="M 132 90 L 141.5 90 L 141.5 114 L 132 114 Z M 132 90 " clip-rule="nonzero"/></clipPath><clipPath id="6cafe3fd3f"><path d="M 113 71 L 141.5 71 L 141.5 133 L 113 133 Z M 113 71 " clip-rule="nonzero"/></clipPath><clipPath id="41ec26b52e"><path d="M 95 52 L 141.5 52 L 141.5 152 L 95 152 Z M 95 52 " clip-rule="nonzero"/></clipPath><clipPath id="40748b33cb"><path d="M 76 33 L 141.5 33 L 141.5 171 L 76 171 Z M 76 33 " clip-rule="nonzero"/></clipPath><clipPath id="9febaa3805"><path d="M 57.164062 14.261719 L 141.5 14.261719 L 141.5 189.761719 L 57.164062 189.761719 Z M 57.164062 14.261719 " clip-rule="nonzero"/></clipPath></defs><g clip-path="url(#0bf6509f98)"><path fill="#ffffff" d="M 0 0.0859375 L 141.75 0.0859375 L 141.75 248.335938 L 0 248.335938 Z M 0 0.0859375 " fill-opacity="1" fill-rule="nonzero"/><path fill="#ffffff" d="M 0 0.0859375 L 141.75 0.0859375 L 141.75 240.835938 L 0 240.835938 Z M 0 0.0859375 " fill-opacity="1" fill-rule="nonzero"/><path fill="#004aad" d="M 0 0.0859375 L 141.75 0.0859375 L 141.75 240.835938 L 0 240.835938 Z M 0 0.0859375 " fill-opacity="1" fill-rule="nonzero"/></g><g clip-path="url(#bd103fe005)"><path fill="#034194" d="M 132.878906 102 C 132.878906 102.644531 132.933594 103.289062 133.042969 103.925781 C 133.152344 104.566406 133.3125 105.191406 133.527344 105.800781 C 133.742188 106.414062 134.003906 107 134.320312 107.566406 C 134.632812 108.132812 134.992188 108.671875 135.394531 109.175781 C 135.800781 109.683594 136.242188 110.152344 136.726562 110.582031 C 137.210938 111.015625 137.726562 111.402344 138.273438 111.746094 C 138.824219 112.089844 139.398438 112.386719 139.996094 112.636719 C 140.59375 112.882812 141.210938 113.078125 141.84375 113.222656 L 141.84375 90.773438 C 141.210938 90.917969 140.59375 91.113281 139.996094 91.359375 C 139.398438 91.605469 138.824219 91.902344 138.273438 92.246094 C 137.722656 92.589844 137.207031 92.980469 136.726562 93.410156 C 136.242188 93.84375 135.796875 94.3125 135.394531 94.816406 C 134.988281 95.324219 134.628906 95.859375 134.316406 96.425781 C 134.003906 96.992188 133.738281 97.582031 133.523438 98.195312 C 133.3125 98.804688 133.148438 99.429688 133.042969 100.070312 C 132.933594 100.707031 132.878906 101.351562 132.878906 102 Z M 132.878906 102 " fill-opacity="1" fill-rule="nonzero"/></g><g clip-path="url(#6cafe3fd3f)"><path fill="#034194" d="M 113.988281 102 C 113.988281 102.941406 114.03125 103.882812 114.117188 104.820312 C 114.207031 105.761719 114.335938 106.695312 114.511719 107.621094 C 114.6875 108.546875 114.902344 109.464844 115.164062 110.371094 C 115.425781 111.277344 115.726562 112.171875 116.066406 113.050781 C 116.410156 113.929688 116.792969 114.789062 117.21875 115.632812 C 117.640625 116.476562 118.101562 117.296875 118.601562 118.097656 C 119.101562 118.898438 119.636719 119.675781 120.207031 120.425781 C 120.78125 121.175781 121.386719 121.898438 122.023438 122.59375 C 122.664062 123.285156 123.332031 123.949219 124.035156 124.582031 C 124.734375 125.214844 125.464844 125.8125 126.21875 126.375 C 126.976562 126.941406 127.757812 127.46875 128.5625 127.960938 C 129.367188 128.453125 130.195312 128.90625 131.042969 129.320312 C 131.890625 129.734375 132.753906 130.109375 133.636719 130.445312 C 134.519531 130.78125 135.417969 131.074219 136.328125 131.324219 C 137.238281 131.574219 138.15625 131.785156 139.085938 131.949219 C 140.015625 132.117188 140.949219 132.238281 141.890625 132.316406 L 141.890625 122.8125 C 140.632812 122.65625 139.394531 122.390625 138.183594 122.011719 C 136.972656 121.628906 135.804688 121.144531 134.679688 120.554688 C 133.558594 119.960938 132.496094 119.273438 131.5 118.488281 C 130.5 117.707031 129.582031 116.839844 128.738281 115.890625 C 127.898438 114.9375 127.152344 113.917969 126.496094 112.832031 C 125.839844 111.746094 125.285156 110.609375 124.835938 109.425781 C 124.386719 108.238281 124.046875 107.019531 123.820312 105.773438 C 123.589844 104.523438 123.476562 103.265625 123.476562 102 C 123.476562 100.730469 123.589844 99.472656 123.820312 98.222656 C 124.046875 96.976562 124.386719 95.757812 124.835938 94.570312 C 125.285156 93.386719 125.839844 92.25 126.496094 91.164062 C 127.152344 90.078125 127.898438 89.058594 128.738281 88.109375 C 129.582031 87.15625 130.5 86.289062 131.5 85.507812 C 132.496094 84.722656 133.558594 84.035156 134.679688 83.441406 C 135.804688 82.851562 136.972656 82.367188 138.183594 81.988281 C 139.394531 81.605469 140.632812 81.339844 141.890625 81.183594 L 141.890625 71.667969 C 140.949219 71.746094 140.015625 71.867188 139.085938 72.035156 C 138.15625 72.199219 137.234375 72.410156 136.324219 72.660156 C 135.414062 72.910156 134.519531 73.203125 133.636719 73.539062 C 132.753906 73.875 131.886719 74.25 131.039062 74.664062 C 130.191406 75.078125 129.367188 75.535156 128.558594 76.027344 C 127.753906 76.515625 126.972656 77.046875 126.214844 77.609375 C 125.460938 78.175781 124.730469 78.773438 124.03125 79.40625 C 123.328125 80.039062 122.660156 80.703125 122.019531 81.398438 C 121.382812 82.089844 120.777344 82.8125 120.203125 83.566406 C 119.632812 84.316406 119.097656 85.089844 118.597656 85.890625 C 118.097656 86.691406 117.636719 87.515625 117.214844 88.359375 C 116.789062 89.203125 116.40625 90.0625 116.066406 90.941406 C 115.722656 91.820312 115.421875 92.714844 115.160156 93.621094 C 114.902344 94.527344 114.683594 95.445312 114.511719 96.375 C 114.335938 97.300781 114.207031 98.234375 114.117188 99.171875 C 114.03125 100.113281 113.988281 101.054688 113.988281 102 Z M 113.988281 102 " fill-opacity="1" fill-rule="nonzero"/></g><g clip-path="url(#41ec26b52e)"><path fill="#034194" d="M 95.023438 102 C 95.023438 103.5625 95.097656 105.121094 95.246094 106.675781 C 95.394531 108.230469 95.617188 109.777344 95.910156 111.3125 C 96.207031 112.847656 96.574219 114.363281 97.015625 115.863281 C 97.453125 117.363281 97.964844 118.839844 98.542969 120.292969 C 99.125 121.742188 99.773438 123.164062 100.488281 124.554688 C 101.203125 125.945312 101.980469 127.296875 102.824219 128.613281 C 103.667969 129.929688 104.574219 131.203125 105.539062 132.433594 C 106.503906 133.664062 107.523438 134.84375 108.601562 135.976562 C 109.679688 137.113281 110.808594 138.191406 111.988281 139.21875 C 113.167969 140.242188 114.394531 141.210938 115.664062 142.121094 C 116.9375 143.03125 118.25 143.878906 119.601562 144.664062 C 120.957031 145.449219 122.34375 146.167969 123.761719 146.820312 C 125.183594 147.476562 126.632812 148.058594 128.109375 148.578125 C 129.585938 149.09375 131.082031 149.539062 132.601562 149.910156 C 134.121094 150.285156 135.65625 150.585938 137.203125 150.816406 C 138.75 151.042969 140.304688 151.199219 141.867188 151.277344 L 141.867188 141.808594 C 140.617188 141.726562 139.371094 141.589844 138.136719 141.390625 C 136.898438 141.191406 135.671875 140.933594 134.460938 140.621094 C 133.246094 140.304688 132.050781 139.933594 130.871094 139.507812 C 129.695312 139.082031 128.539062 138.601562 127.40625 138.066406 C 126.273438 137.53125 125.167969 136.941406 124.089844 136.304688 C 123.011719 135.664062 121.964844 134.976562 120.953125 134.238281 C 119.941406 133.5 118.964844 132.714844 118.027344 131.886719 C 117.085938 131.058594 116.191406 130.1875 115.332031 129.273438 C 114.476562 128.359375 113.664062 127.40625 112.898438 126.414062 C 112.128906 125.425781 111.410156 124.402344 110.742188 123.34375 C 110.070312 122.285156 109.453125 121.199219 108.882812 120.082031 C 108.316406 118.964844 107.800781 117.824219 107.339844 116.660156 C 106.878906 115.496094 106.476562 114.3125 106.125 113.109375 C 105.777344 111.90625 105.484375 110.691406 105.25 109.460938 C 105.015625 108.230469 104.839844 106.992188 104.722656 105.746094 C 104.605469 104.5 104.546875 103.25 104.546875 102 C 104.546875 100.746094 104.605469 99.496094 104.722656 98.25 C 104.839844 97.003906 105.015625 95.765625 105.25 94.535156 C 105.484375 93.304688 105.777344 92.089844 106.125 90.886719 C 106.476562 89.683594 106.878906 88.5 107.339844 87.335938 C 107.800781 86.171875 108.316406 85.03125 108.882812 83.914062 C 109.453125 82.796875 110.070312 81.710938 110.742188 80.652344 C 111.410156 79.59375 112.128906 78.570312 112.898438 77.582031 C 113.664062 76.589844 114.476562 75.636719 115.332031 74.722656 C 116.191406 73.808594 117.085938 72.9375 118.027344 72.109375 C 118.964844 71.28125 119.941406 70.496094 120.953125 69.757812 C 121.964844 69.019531 123.011719 68.332031 124.089844 67.691406 C 125.167969 67.054688 126.273438 66.464844 127.40625 65.929688 C 128.539062 65.394531 129.695312 64.914062 130.871094 64.488281 C 132.050781 64.0625 133.246094 63.691406 134.460938 63.375 C 135.671875 63.0625 136.898438 62.804688 138.136719 62.605469 C 139.371094 62.410156 140.617188 62.269531 141.867188 62.1875 L 141.867188 52.65625 C 140.304688 52.738281 138.746094 52.890625 137.199219 53.121094 C 135.648438 53.351562 134.117188 53.652344 132.59375 54.027344 C 131.074219 54.398438 129.578125 54.847656 128.097656 55.363281 C 126.621094 55.878906 125.171875 56.464844 123.75 57.121094 C 122.328125 57.773438 120.941406 58.496094 119.585938 59.28125 C 118.234375 60.066406 116.917969 60.917969 115.648438 61.828125 C 114.375 62.738281 113.148438 63.707031 111.96875 64.734375 C 110.789062 65.761719 109.660156 66.84375 108.582031 67.980469 C 107.503906 69.113281 106.480469 70.296875 105.515625 71.53125 C 104.550781 72.761719 103.648438 74.035156 102.804688 75.355469 C 101.960938 76.671875 101.183594 78.027344 100.46875 79.417969 C 99.753906 80.808594 99.105469 82.234375 98.527344 83.6875 C 97.949219 85.140625 97.4375 86.617188 97 88.117188 C 96.5625 89.621094 96.195312 91.140625 95.902344 92.675781 C 95.609375 94.210938 95.386719 95.757812 95.238281 97.316406 C 95.09375 98.875 95.019531 100.433594 95.023438 102 Z M 95.023438 102 " fill-opacity="1" fill-rule="nonzero"/></g><g clip-path="url(#40748b33cb)"><path fill="#034194" d="M 76.105469 102 C 76.109375 104.179688 76.214844 106.359375 76.425781 108.53125 C 76.632812 110.703125 76.949219 112.859375 77.367188 115.003906 C 77.78125 117.144531 78.300781 119.261719 78.921875 121.355469 C 79.542969 123.445312 80.261719 125.503906 81.078125 127.527344 C 81.898438 129.554688 82.808594 131.53125 83.816406 133.46875 C 84.824219 135.40625 85.921875 137.289062 87.113281 139.121094 C 88.300781 140.953125 89.574219 142.722656 90.929688 144.433594 C 92.289062 146.140625 93.726562 147.78125 95.242188 149.351562 C 96.757812 150.925781 98.34375 152.421875 100.003906 153.839844 C 101.664062 155.261719 103.386719 156.597656 105.171875 157.851562 C 106.960938 159.109375 108.804688 160.273438 110.703125 161.351562 C 112.601562 162.429688 114.546875 163.417969 116.542969 164.308594 C 118.535156 165.199219 120.566406 165.996094 122.636719 166.691406 C 124.707031 167.390625 126.804688 167.988281 128.933594 168.484375 C 131.058594 168.980469 133.203125 169.375 135.371094 169.664062 C 137.535156 169.957031 139.707031 170.144531 141.890625 170.226562 L 141.890625 160.757812 C 140.019531 160.675781 138.152344 160.507812 136.296875 160.25 C 134.4375 159.988281 132.597656 159.644531 130.773438 159.207031 C 128.949219 158.773438 127.152344 158.253906 125.378906 157.648438 C 123.601562 157.039062 121.863281 156.351562 120.152344 155.578125 C 118.445312 154.804688 116.777344 153.953125 115.152344 153.023438 C 113.523438 152.089844 111.945312 151.082031 110.417969 150 C 108.886719 148.917969 107.410156 147.765625 105.992188 146.542969 C 104.570312 145.316406 103.210938 144.03125 101.914062 142.675781 C 100.617188 141.324219 99.390625 139.914062 98.226562 138.441406 C 97.066406 136.972656 95.976562 135.449219 94.960938 133.875 C 93.945312 132.300781 93.003906 130.679688 92.144531 129.015625 C 91.28125 127.351562 90.5 125.652344 89.800781 123.914062 C 89.105469 122.175781 88.488281 120.40625 87.960938 118.609375 C 87.429688 116.8125 86.988281 114.996094 86.632812 113.15625 C 86.277344 111.316406 86.007812 109.464844 85.828125 107.597656 C 85.652344 105.734375 85.5625 103.867188 85.5625 101.992188 C 85.5625 100.117188 85.652344 98.25 85.828125 96.382812 C 86.007812 94.519531 86.277344 92.667969 86.632812 90.828125 C 86.988281 88.988281 87.429688 87.171875 87.960938 85.375 C 88.488281 83.578125 89.105469 81.808594 89.800781 80.070312 C 90.5 78.332031 91.28125 76.628906 92.144531 74.96875 C 93.003906 73.304688 93.945312 71.683594 94.960938 70.109375 C 95.976562 68.535156 97.066406 67.011719 98.226562 65.542969 C 99.390625 64.070312 100.617188 62.660156 101.914062 61.308594 C 103.210938 59.953125 104.570312 58.667969 105.992188 57.441406 C 107.410156 56.21875 108.886719 55.066406 110.417969 53.984375 C 111.945312 52.902344 113.523438 51.894531 115.152344 50.960938 C 116.777344 50.03125 118.445312 49.179688 120.152344 48.40625 C 121.863281 47.632812 123.601562 46.945312 125.378906 46.335938 C 127.152344 45.730469 128.949219 45.210938 130.773438 44.777344 C 132.597656 44.339844 134.4375 43.996094 136.296875 43.734375 C 138.152344 43.476562 140.019531 43.304688 141.890625 43.226562 L 141.890625 33.769531 C 139.707031 33.851562 137.535156 34.039062 135.371094 34.332031 C 133.203125 34.621094 131.058594 35.015625 128.933594 35.511719 C 126.804688 36.007812 124.707031 36.605469 122.636719 37.304688 C 120.566406 38 118.535156 38.796875 116.542969 39.6875 C 114.546875 40.578125 112.601562 41.566406 110.703125 42.644531 C 108.804688 43.722656 106.960938 44.886719 105.171875 46.144531 C 103.386719 47.398438 101.664062 48.734375 100.003906 50.15625 C 98.34375 51.574219 96.757812 53.070312 95.242188 54.644531 C 93.726562 56.214844 92.289062 57.855469 90.929688 59.566406 C 89.574219 61.273438 88.300781 63.042969 87.113281 64.875 C 85.921875 66.707031 84.824219 68.589844 83.816406 70.527344 C 82.808594 72.464844 81.898438 74.445312 81.078125 76.46875 C 80.261719 78.492188 79.542969 80.550781 78.921875 82.640625 C 78.300781 84.734375 77.78125 86.851562 77.367188 88.992188 C 76.949219 91.136719 76.632812 93.292969 76.425781 95.464844 C 76.214844 97.636719 76.109375 99.816406 76.105469 102 Z M 76.105469 102 " fill-opacity="1" fill-rule="nonzero"/></g><g clip-path="url(#9febaa3805)"><path fill="#034194" d="M 57.164062 102 C 57.164062 103.398438 57.199219 104.796875 57.265625 106.195312 C 57.335938 107.597656 57.4375 108.992188 57.570312 110.386719 C 57.707031 111.78125 57.875 113.171875 58.074219 114.554688 C 58.277344 115.941406 58.511719 117.320312 58.78125 118.695312 C 59.050781 120.070312 59.351562 121.4375 59.683594 122.796875 C 60.019531 124.160156 60.386719 125.507812 60.785156 126.851562 C 61.1875 128.195312 61.617188 129.527344 62.082031 130.847656 C 62.546875 132.167969 63.039062 133.480469 63.566406 134.777344 C 64.09375 136.074219 64.652344 137.359375 65.242188 138.628906 C 65.832031 139.902344 66.449219 141.15625 67.097656 142.398438 C 67.75 143.640625 68.425781 144.863281 69.136719 146.070312 C 69.84375 147.28125 70.582031 148.472656 71.347656 149.644531 C 72.113281 150.816406 72.90625 151.96875 73.730469 153.105469 C 74.550781 154.238281 75.398438 155.355469 76.273438 156.449219 C 77.148438 157.542969 78.050781 158.613281 78.976562 159.664062 C 79.90625 160.714844 80.855469 161.742188 81.832031 162.746094 C 82.808594 163.75 83.808594 164.730469 84.835938 165.6875 C 85.859375 166.644531 86.90625 167.574219 87.972656 168.480469 C 89.042969 169.386719 90.132812 170.265625 91.242188 171.121094 C 92.355469 171.976562 93.484375 172.800781 94.636719 173.601562 C 95.789062 174.398438 96.957031 175.171875 98.144531 175.914062 C 99.335938 176.65625 100.539062 177.371094 101.761719 178.054688 C 102.984375 178.738281 104.222656 179.394531 105.476562 180.019531 C 106.734375 180.644531 108 181.238281 109.285156 181.804688 C 110.566406 182.367188 111.863281 182.898438 113.171875 183.402344 C 114.480469 183.902344 115.800781 184.375 117.132812 184.8125 C 118.464844 185.25 119.804688 185.65625 121.15625 186.027344 C 122.507812 186.402344 123.863281 186.742188 125.230469 187.050781 C 126.601562 187.359375 127.972656 187.632812 129.355469 187.875 C 130.734375 188.117188 132.121094 188.328125 133.511719 188.503906 C 134.902344 188.675781 136.296875 188.820312 137.695312 188.925781 C 139.089844 189.035156 140.492188 189.109375 141.890625 189.152344 L 141.890625 179.695312 C 140.644531 179.65625 139.398438 179.589844 138.152344 179.488281 C 136.910156 179.390625 135.667969 179.265625 134.429688 179.105469 C 133.191406 178.949219 131.957031 178.761719 130.726562 178.542969 C 129.496094 178.324219 128.273438 178.078125 127.058594 177.804688 C 125.839844 177.527344 124.628906 177.222656 123.425781 176.886719 C 122.222656 176.554688 121.03125 176.191406 119.84375 175.796875 C 118.660156 175.40625 117.484375 174.988281 116.320312 174.539062 C 115.15625 174.089844 114 173.613281 112.859375 173.109375 C 111.71875 172.605469 110.585938 172.074219 109.472656 171.519531 C 108.355469 170.960938 107.253906 170.375 106.164062 169.765625 C 105.074219 169.152344 104.003906 168.515625 102.945312 167.855469 C 101.886719 167.191406 100.847656 166.503906 99.820312 165.789062 C 98.796875 165.078125 97.789062 164.339844 96.800781 163.578125 C 95.8125 162.820312 94.84375 162.035156 93.890625 161.226562 C 92.941406 160.417969 92.007812 159.589844 91.097656 158.734375 C 90.1875 157.882812 89.296875 157.007812 88.425781 156.113281 C 87.558594 155.21875 86.710938 154.304688 85.886719 153.367188 C 85.0625 152.429688 84.257812 151.476562 83.480469 150.5 C 82.699219 149.527344 81.945312 148.53125 81.214844 147.523438 C 80.484375 146.511719 79.777344 145.484375 79.097656 144.4375 C 78.414062 143.394531 77.757812 142.332031 77.128906 141.253906 C 76.496094 140.179688 75.894531 139.085938 75.316406 137.980469 C 74.738281 136.875 74.1875 135.757812 73.664062 134.625 C 73.136719 133.492188 72.640625 132.347656 72.171875 131.195312 C 71.703125 130.039062 71.261719 128.871094 70.851562 127.695312 C 70.4375 126.515625 70.054688 125.332031 69.699219 124.132812 C 69.34375 122.9375 69.015625 121.734375 68.71875 120.523438 C 68.421875 119.3125 68.152344 118.09375 67.914062 116.871094 C 67.675781 115.644531 67.464844 114.417969 67.285156 113.183594 C 67.105469 111.949219 66.957031 110.710938 66.835938 109.46875 C 66.71875 108.226562 66.628906 106.984375 66.566406 105.738281 C 66.507812 104.492188 66.476562 103.246094 66.476562 102 C 66.476562 100.75 66.507812 99.503906 66.566406 98.257812 C 66.628906 97.011719 66.71875 95.769531 66.835938 94.527344 C 66.957031 93.285156 67.105469 92.046875 67.285156 90.8125 C 67.464844 89.578125 67.675781 88.351562 67.914062 87.125 C 68.152344 85.902344 68.421875 84.683594 68.71875 83.472656 C 69.015625 82.261719 69.34375 81.058594 69.699219 79.863281 C 70.054688 78.667969 70.4375 77.480469 70.851562 76.300781 C 71.261719 75.125 71.703125 73.957031 72.171875 72.804688 C 72.640625 71.648438 73.136719 70.503906 73.664062 69.371094 C 74.1875 68.238281 74.738281 67.121094 75.316406 66.015625 C 75.894531 64.910156 76.496094 63.816406 77.128906 62.742188 C 77.757812 61.664062 78.414062 60.605469 79.097656 59.558594 C 79.777344 58.511719 80.484375 57.484375 81.214844 56.472656 C 81.945312 55.464844 82.699219 54.46875 83.480469 53.496094 C 84.257812 52.519531 85.0625 51.566406 85.886719 50.628906 C 86.710938 49.695312 87.558594 48.777344 88.425781 47.882812 C 89.296875 46.988281 90.1875 46.113281 91.097656 45.261719 C 92.007812 44.40625 92.941406 43.578125 93.890625 42.769531 C 94.84375 41.960938 95.8125 41.175781 96.800781 40.417969 C 97.789062 39.65625 98.796875 38.917969 99.820312 38.207031 C 100.847656 37.492188 101.886719 36.804688 102.945312 36.140625 C 104.003906 35.480469 105.074219 34.84375 106.164062 34.230469 C 107.253906 33.621094 108.355469 33.035156 109.472656 32.476562 C 110.585938 31.921875 111.71875 31.390625 112.859375 30.886719 C 114 30.382812 115.15625 29.90625 116.320312 29.457031 C 117.484375 29.007812 118.660156 28.589844 119.84375 28.199219 C 121.03125 27.804688 122.222656 27.441406 123.425781 27.109375 C 124.628906 26.773438 125.839844 26.46875 127.058594 26.191406 C 128.273438 25.917969 129.496094 25.671875 130.726562 25.453125 C 131.957031 25.234375 133.191406 25.046875 134.429688 24.890625 C 135.667969 24.734375 136.910156 24.605469 138.152344 24.507812 C 139.398438 24.40625 140.644531 24.339844 141.890625 24.300781 L 141.890625 14.832031 C 140.492188 14.875 139.089844 14.949219 137.695312 15.054688 C 136.296875 15.164062 134.902344 15.304688 133.511719 15.480469 C 132.121094 15.65625 130.734375 15.863281 129.355469 16.105469 C 127.972656 16.347656 126.601562 16.621094 125.234375 16.929688 C 123.867188 17.238281 122.507812 17.578125 121.15625 17.953125 C 119.804688 18.328125 118.464844 18.734375 117.132812 19.171875 C 115.800781 19.609375 114.480469 20.078125 113.171875 20.578125 C 111.863281 21.082031 110.566406 21.613281 109.285156 22.179688 C 108.003906 22.742188 106.734375 23.335938 105.480469 23.960938 C 104.226562 24.585938 102.988281 25.242188 101.765625 25.925781 C 100.539062 26.613281 99.335938 27.324219 98.148438 28.070312 C 96.957031 28.8125 95.789062 29.582031 94.636719 30.382812 C 93.488281 31.179688 92.355469 32.007812 91.246094 32.859375 C 90.132812 33.714844 89.042969 34.59375 87.972656 35.5 C 86.90625 36.40625 85.859375 37.339844 84.835938 38.292969 C 83.8125 39.25 82.8125 40.230469 81.835938 41.238281 C 80.859375 42.242188 79.90625 43.269531 78.980469 44.320312 C 78.050781 45.371094 77.152344 46.441406 76.273438 47.535156 C 75.398438 48.628906 74.550781 49.746094 73.730469 50.878906 C 72.90625 52.015625 72.113281 53.167969 71.347656 54.34375 C 70.582031 55.515625 69.84375 56.707031 69.136719 57.914062 C 68.429688 59.125 67.75 60.347656 67.097656 61.589844 C 66.449219 62.832031 65.832031 64.085938 65.242188 65.359375 C 64.652344 66.628906 64.09375 67.914062 63.566406 69.210938 C 63.039062 70.511719 62.546875 71.820312 62.082031 73.140625 C 61.617188 74.464844 61.1875 75.796875 60.785156 77.136719 C 60.386719 78.480469 60.019531 79.832031 59.6875 81.191406 C 59.351562 82.554688 59.050781 83.921875 58.78125 85.296875 C 58.511719 86.671875 58.277344 88.050781 58.074219 89.4375 C 57.875 90.824219 57.707031 92.214844 57.570312 93.609375 C 57.4375 95.003906 57.335938 96.398438 57.265625 97.796875 C 57.199219 99.199219 57.164062 100.597656 57.164062 102 Z M 57.164062 102 " fill-opacity="1" fill-rule="nonzero"/></g></svg>